trial_3_ID.mot
nRows=12
nColumns=42

name trial_3_ID.mot
datacolumns 42
datarows 12
range 5.3800000000 5.4900000000
endheader
time	pelvis_tilt_moment	pelvis_list_moment	pelvis_rotation_moment	pelvis_tx_force	pelvis_ty_force	pelvis_tz_force	hip_flexion_r_moment	hip_adduction_r_moment	hip_rotation_r_moment	knee_angle_r_moment	knee_vv_r_moment	knee_rot_r_moment	ankle_angle_r_moment	subtalar_angle_r_moment	mtp_angle_r_moment	hip_flexion_l_moment	hip_adduction_l_moment	hip_rotation_l_moment	knee_angle_l_moment	knee_vv_l_moment	knee_rot_l_moment	ankle_angle_l_moment	subtalar_angle_l_moment	mtp_angle_l_moment	lumbar_extension_moment	lumbar_bending_moment	lumbar_rotation_moment	arm_flex_r_moment	arm_add_r_moment	arm_rot_r_moment	elbow_flex_r_moment	pro_sup_r_moment	wrist_flex_r_moment	wrist_dev_r_moment	arm_flex_l_moment	arm_add_l_moment	arm_rot_l_moment	elbow_flex_l_moment	pro_sup_l_moment	wrist_flex_l_moment	wrist_dev_l_moment
        5.3800000000	       -9.9290457200	        7.4050719200	       -1.9328583700	      -15.8840301700	       -7.7299953600	       -8.4250097400	       -7.8169643400	        5.1785981900	       -0.9580774400	       -5.4589616500	        3.5695408000	       -0.7617062000	        4.2453333400	       -0.5221503100	        0.0249834800	        6.0055834900	      -45.2956048000	       -3.1424816000	      -27.5574722900	       19.3590810800	        4.0385679100	      -63.8758393500	       13.7874328400	        0.0281252100	       14.2843334800	        2.0833194000	        3.7336397300	        0.6530589700	       -1.8617500800	       -0.0427459200	       -0.1213481700	       -0.0182561700	       -0.0555907500	       -0.0250496100	       -1.1112404100	       -1.1557800900	        0.1675054000	       -0.0358714300	        0.0171510400	        0.0488489800	        0.0487714200	
        5.3900000000	       -9.6768116500	        5.8068061900	       -2.0862151800	      -15.7978563000	       -4.7470694000	       -6.1004140900	       -7.6673385000	        4.3445089400	       -1.4184344200	       -4.2738020900	        3.5109402200	       -1.1654721800	        5.0526815200	       -0.7177050000	        0.0289242700	        5.8143382800	      -43.1273804900	       -2.7605035600	      -27.3895386000	       18.3250727900	        3.7100855100	      -64.1643688300	       13.7419237100	        0.0274404800	       15.2388141100	        1.4369792100	        3.6282446600	        0.5477677400	       -1.8077179000	       -0.0366909500	       -0.1337376300	       -0.0160313500	       -0.0518921300	       -0.0226556900	       -1.1456059400	       -1.1438635500	        0.1866187500	       -0.0255186100	        0.0196014200	        0.0533420800	        0.0489041600	
        5.4000000000	       -9.6013104200	        4.4904893400	       -2.4589472400	      -16.0916988300	       -2.2410807700	       -4.0499642600	       -8.1340589400	        3.3494891400	       -1.8869530500	       -3.1975545100	        3.3179479300	       -1.5818142000	        5.5973654300	       -0.8675060800	        0.0329600200	        5.6519421700	      -40.7523906500	       -2.3306445700	      -26.9552117900	       17.1462929700	        3.3466649100	      -64.1266430600	       13.6155620600	        0.0261804800	       16.5209926000	        0.8013801100	        3.4858712300	        0.4456401300	       -1.7536622000	       -0.0309429800	       -0.1434648000	       -0.0139389500	       -0.0482772000	       -0.0205784300	       -1.1867382800	       -1.1324667800	        0.2044240200	       -0.0146211200	        0.0221716100	        0.0575869100	        0.0483060300	
        5.4100000000	       -9.4182073900	        3.6548584600	       -2.9870307700	      -16.7094364300	       -0.4026453400	       -2.5128042400	       -9.0930601200	        2.3173852000	       -2.3266567700	       -2.1558925500	        3.0152720700	       -1.9865289700	        5.8657543600	       -0.9607836600	        0.0369350100	        5.6247272400	      -38.1685441800	       -1.8566661000	      -26.1667149000	       15.8315304500	        2.9462157600	      -63.6684020700	       13.3869208700	        0.0242870100	       18.1271164400	        0.2098505700	        3.3167930900	        0.3519427200	       -1.7006216200	       -0.0266126300	       -0.1490432800	       -0.0122119600	       -0.0447964700	       -0.0190320900	       -1.2249988500	       -1.1319229300	        0.2166257100	       -0.0041210500	        0.0245530100	        0.0606462500	        0.0466576600	
        5.4200000000	       -8.8291473500	        3.3348919700	       -3.5541973500	      -17.4896851800	        0.7060649900	       -1.4993946500	      -10.3186181000	        1.3091122600	       -2.7041238200	       -1.0271088400	        2.6130772400	       -2.3604262900	        5.8964841800	       -0.9945830400	        0.0406519000	        5.8298735100	      -35.3247689300	       -1.3457388100	      -24.9320679400	       14.3801099200	        2.5077465400	      -62.6816966400	       13.0326613900	        0.0218250800	       19.9788638100	       -0.3193995000	        3.1420703000	        0.2717894900	       -1.6513551000	       -0.0246737200	       -0.1498906300	       -0.0110406100	       -0.0415357300	       -0.0181346600	       -1.2496044600	       -1.1542482200	        0.2188549100	        0.0045359700	        0.0263526600	        0.0614831100	        0.0437105900	
        5.4300000000	       -7.6738442500	        3.3787070600	       -4.0172245000	      -18.2689934800	        1.1766614200	       -0.8128346800	      -11.5860581200	        0.3139228800	       -2.9914210300	        0.3050335200	        2.1052656000	       -2.6912295800	        5.7636917500	       -0.9702883700	        0.0438910100	        6.3296129000	      -32.1169370900	       -0.8112740700	      -23.1743129800	       12.7769633000	        2.0327477100	      -61.0541051100	       12.5308731200	        0.0190325600	       21.9152079400	       -0.7921503900	        2.9856097800	        0.2080544300	       -1.6098875100	       -0.0257910100	       -0.1467701200	       -0.0105241400	       -0.0385788900	       -0.0178418300	       -1.2511809600	       -1.2097360100	        0.2079585000	        0.0095313700	        0.0271725200	        0.0592173700	        0.0393679500	
        5.4400000000	       -5.9056785900	        3.4762000900	       -4.2194435700	      -18.7858170000	        1.3379996200	       -0.1377656800	      -12.6467155800	       -0.7467842200	       -3.1666121700	        1.9542464200	        1.4727470400	       -2.9726892400	        5.5548021900	       -0.8894215900	        0.0464500100	        7.1335232200	      -28.4121593200	       -0.2768420600	      -20.8532838700	       10.9965077100	        1.5271932600	      -58.6816302500	       11.8655304000	        0.0163443800	       23.7105442300	       -1.2380302600	        2.8640490200	        0.1598732400	       -1.5800548500	       -0.0301939800	       -0.1416835200	       -0.0106427600	       -0.0359523800	       -0.0179380300	       -1.2231321300	       -1.3034305700	        0.1829450400	        0.0092648400	        0.0266891300	        0.0533700000	        0.0337043800	
        5.4500000000	       -3.7548002600	        3.2718241100	       -4.0578796800	      -18.8653477100	        1.6017124500	        0.8195851800	      -13.4249818500	       -1.9860531300	       -3.2147993600	        3.9431694100	        0.6910131100	       -3.2026865100	        5.3451096200	       -0.7503360600	        0.0481595600	        8.1969412900	      -24.1033952200	        0.2201262100	      -17.9853482600	        9.0176911700	        1.0039774600	      -55.4849940200	       11.0312696200	        0.0143736800	       25.1210655200	       -1.6991965400	        2.7797346400	        0.1229135800	       -1.5637958800	       -0.0376380200	       -0.1371286000	       -0.0112673300	       -0.0335932300	       -0.0181087400	       -1.1614941300	       -1.4329263600	        0.1452006000	        0.0032307700	        0.0247061400	        0.0440064800	        0.0269136900	
        5.4600000000	       -1.5610770300	        2.4996495700	       -3.5051240300	      -18.2701771100	        2.4395600400	        2.2135662800	      -13.9395948600	       -3.5212318300	       -3.1292327100	        6.2206202600	       -0.2597476000	       -3.3804751400	        5.1813390000	       -0.5476283500	        0.0489099000	        9.4329291200	      -19.1824648800	        0.6283133400	      -14.6571156800	        6.8479098600	        0.4844393200	      -51.4279347700	       10.0375266100	        0.0138387100	       25.9462700400	       -2.2095626800	        2.7210348900	        0.0912483800	       -1.5601535800	       -0.0474656000	       -0.1350844100	       -0.0122021600	       -0.0313632900	       -0.0180614600	       -1.0645904100	       -1.5882469700	        0.0980174100	       -0.0074403500	        0.0211772100	        0.0317414000	        0.0192376700	
        5.4700000000	        0.1571081200	        1.1088357900	       -2.6172698700	      -16.9649757300	        4.2875584700	        4.0065441100	      -14.2560959800	       -5.4381830800	       -2.9124999200	        8.6765466400	       -1.3842949900	       -3.5042236400	        5.0735929800	       -0.2736944800	        0.0486716400	       10.5544873000	      -13.8002915000	        0.8892623800	      -11.0979087400	        4.5472642400	       -0.0017628200	      -46.5371888500	        8.9107362800	        0.0154442400	       26.0795349600	       -2.7727175100	        2.6700050800	        0.0596213500	       -1.5653878000	       -0.0587413300	       -0.1362557400	       -0.0132381100	       -0.0290956000	       -0.0176300100	       -0.9338411000	       -1.7537794700	        0.0457529800	       -0.0203146700	        0.0162115400	        0.0176218700	        0.0109428600	
        5.4800000000	        0.7615876200	       -0.6769711600	       -1.5220631600	      -15.2365696100	        7.3674758700	        5.9683847000	      -14.4455958800	       -7.7641851400	       -2.5767616900	       11.1658093600	       -2.6660795400	       -3.5696063000	        4.9980159100	        0.0784982600	        0.0475056100	       11.0700941600	       -8.2818812500	        0.9528689600	       -7.6800385900	        2.2399179900	       -0.4197653500	      -40.9209796300	        7.6940632200	        0.0196476000	       25.5237850200	       -3.3515095000	        2.6127560000	        0.0249545400	       -1.5739131600	       -0.0704160300	       -0.1399074200	       -0.0141939600	       -0.0266418000	       -0.0168119200	       -0.7753928200	       -1.9116671700	       -0.0070639000	       -0.0327454100	        0.0100688900	        0.0029398500	        0.0023551500	
        5.4900000000	        0.1587428700	       -2.3769397400	       -0.4471600100	      -12.9080926900	       11.4639805100	        7.6551631400	      -14.5653875700	      -10.4622147400	       -2.1423298200	       13.5326037500	       -4.0696254700	       -3.5705641300	        4.9076428800	        0.5120806500	        0.0455557900	       10.8777746600	       -3.1066261500	        0.7999722700	       -4.6633600600	        0.1056388600	       -0.7368089400	      -34.7693100800	        6.4430613400	        0.0264499800	       24.3683890700	       -3.8787125200	        2.5461725700	       -0.0134133900	       -1.5795780400	       -0.0814825000	       -0.1443015700	       -0.0149361000	       -0.0238991800	       -0.0157288900	       -0.6008772200	       -2.0456066200	       -0.0564782400	       -0.0430102400	        0.0031393800	       -0.0109713600	       -0.0061009100	
